<?xml version="1.0" encoding="UTF-8"?>
<svg id="Layer_1" xmlns="http://www.w3.org/2000/svg" version="1.1" viewBox="0 0 64 64">
  <!-- Generator: Adobe Illustrator 29.2.1, SVG Export Plug-In . SVG Version: 2.1.0 Build 116)  -->
  <defs>
    <style>
      .st0 {
        fill: #300;
      }

      .st1 {
        fill: #ff9a00;
      }
    </style>
  </defs>
  <rect class="st0" width="64" height="64" rx="12" ry="12"/>
  <g>
    <path class="st1" d="M19.3,36.8l-3.4,10.2h-4.3L22.6,14.6h5l11,32.4h-4.5l-3.5-10.2h-11.5ZM29.9,33.5l-3.2-9.3c-.7-2.1-1.2-4-1.7-5.9h0c-.5,1.9-1,3.9-1.6,5.9l-3.2,9.4h9.7Z"/>
    <path class="st1" d="M47.8,17.2c0,1.4-1,2.6-2.7,2.6s-2.5-1.2-2.5-2.6,1.1-2.6,2.6-2.6,2.6,1.2,2.6,2.6ZM43.1,47v-23.2h4.2v23.2h-4.2Z"/>
  </g>
</svg>