<?xml version="1.0" encoding="UTF-8"?>
<svg id="Layer_1" xmlns="http://www.w3.org/2000/svg" version="1.1" viewBox="0 0 64 64">
  <!-- Generator: Adobe Illustrator 29.2.1, SVG Export Plug-In . SVG Version: 2.1.0 Build 116)  -->
  <defs>
    <style>
      .st0 {
        fill: #3a97ed;
      }

      .st1 {
        fill: #001833;
      }
    </style>
  </defs>
  <rect class="st1" width="64" height="64" rx="12" ry="12"/>
  <g>
    <path class="st0" d="M33.5,23.4c0,1.7-.3,3.2-.8,4.5s-1.3,2.4-2.3,3.3-2.3,1.6-3.7,2.1c-1.5.5-3.2.7-5.2.7h-2.5v9.7c0,.2,0,.3-.2.4s-.3.2-.5.3-.5.1-.9.2-.9,0-1.5,0-1.1,0-1.5,0-.7-.1-.9-.2-.4-.2-.5-.3-.1-.3-.1-.4v-27.3c0-.7.2-1.3.6-1.7s.9-.6,1.5-.6h7.1c.7,0,1.4,0,2.1,0s1.4.2,2.3.4c.9.2,1.8.5,2.8,1s1.7,1.1,2.4,1.8,1.2,1.6,1.5,2.6.5,2.1.5,3.3ZM27.1,23.8c0-1.1-.2-1.9-.6-2.6s-.8-1.2-1.4-1.5-1.1-.5-1.7-.6-1.2-.1-1.9-.1h-2.6v10.3h2.8c1,0,1.8-.1,2.5-.4s1.2-.6,1.6-1.1c.4-.5.7-1,1-1.7s.3-1.4.3-2.2Z"/>
    <path class="st0" d="M52.2,37.8c0,1.2-.2,2.2-.7,3.1s-1.1,1.7-1.9,2.3-1.8,1.1-2.9,1.4-2.3.5-3.6.5-1.5,0-2.2-.2-1.3-.3-1.9-.4-1-.4-1.4-.6-.6-.4-.8-.5-.3-.4-.4-.8-.1-.9-.1-1.6,0-.8,0-1.1,0-.5.1-.7.1-.3.2-.3.2,0,.4,0,.4,0,.8.3.8.4,1.3.6,1.1.5,1.7.7,1.4.3,2.3.3,1,0,1.4-.2.8-.3,1.1-.5.5-.5.7-.8.2-.7.2-1.1-.1-.9-.4-1.2-.7-.6-1.1-.9-1-.5-1.6-.7-1.2-.5-1.9-.7-1.2-.6-1.9-.9-1.1-.8-1.6-1.3c-.5-.5-.9-1.1-1.1-1.8s-.4-1.5-.4-2.5.2-1.9.6-2.8,1-1.6,1.7-2.1,1.6-1.1,2.7-1.4,2.2-.5,3.6-.5,1.3,0,1.9.1,1.2.2,1.7.4.9.3,1.3.5.6.3.7.4.3.2.3.4.1.3.1.4,0,.4,0,.6,0,.5,0,.9,0,.8,0,1,0,.5-.1.6-.1.3-.2.3-.2,0-.3,0-.4,0-.7-.2-.7-.3-1.1-.5-1-.4-1.5-.5-1.3-.2-2-.2-1,0-1.4.2-.7.3-1,.5-.4.4-.6.7-.2.6-.2.9c0,.5.1.9.4,1.2s.7.6,1.2.9,1,.5,1.7.7,1.2.5,1.9.7,1.3.6,1.9.9,1.2.8,1.7,1.3c.5.5.9,1.1,1.2,1.8s.4,1.5.4,2.5Z"/>
  </g>
</svg>