<?xml version="1.0" encoding="UTF-8"?>
<svg id="Layer_1" xmlns="http://www.w3.org/2000/svg" version="1.1" viewBox="0 0 64 64">
  <!-- Generator: Adobe Illustrator 29.2.1, SVG Export Plug-In . SVG Version: 2.1.0 Build 116)  -->
  <defs>
    <style>
      .st0 {
        fill: #99f;
      }

      .st1 {
        fill: #00005b;
      }
    </style>
  </defs>
  <rect class="st1" width="64" height="64" rx="12" ry="12"/>
  <g>
    <path class="st0" d="M34.1,26.6c0,1.7-.3,3.2-.8,4.5-.5,1.3-1.3,2.4-2.3,3.3-1,.9-2.3,1.6-3.7,2-1.5.5-3.2.7-5.2.7h-2.5v9.6c0,.2,0,.3-.2.4-.1.1-.3.2-.5.3-.2,0-.5.1-.9.2s-.9,0-1.5,0-1.1,0-1.5,0c-.4,0-.7-.1-.9-.2-.2,0-.4-.2-.5-.3,0-.1-.1-.3-.1-.4v-27.2c0-.7.2-1.3.6-1.6.4-.4.9-.5,1.5-.5h7.1c.7,0,1.4,0,2,0,.6,0,1.4.2,2.3.4.9.2,1.8.5,2.7,1,.9.5,1.7,1.1,2.4,1.8.7.7,1.2,1.6,1.5,2.6s.5,2.1.5,3.3ZM27.7,27c0-1.1-.2-1.9-.6-2.6-.4-.7-.8-1.2-1.4-1.5-.5-.3-1.1-.5-1.7-.6-.6,0-1.2-.1-1.9-.1h-2.6v10.3h2.8c1,0,1.8-.1,2.5-.4.7-.3,1.2-.6,1.6-1.1.4-.5.7-1,1-1.7.2-.7.3-1.4.3-2.2Z"/>
    <path class="st0" d="M51.9,27.9c0,.6,0,1,0,1.4,0,.4,0,.6-.1.8,0,.2-.1.3-.2.4-.1,0-.2.1-.4.1s-.3,0-.4,0c-.2,0-.3-.1-.5-.2-.2,0-.4-.1-.6-.2-.2,0-.5,0-.8,0s-.7,0-1,.2c-.3.1-.7.3-1,.6-.3.3-.7.7-1.1,1.1s-.8,1-1.2,1.7v13c0,.2,0,.3-.1.4,0,.1-.3.2-.5.3-.2,0-.5.1-.9.2-.4,0-.8,0-1.4,0s-1.1,0-1.4,0c-.4,0-.7,0-.9-.2-.2,0-.4-.2-.5-.3,0-.1-.1-.3-.1-.4v-20.8c0-.2,0-.3.1-.4,0-.1.2-.2.4-.3.2,0,.5-.1.8-.2.3,0,.7,0,1.2,0s.9,0,1.2,0,.6,0,.8.2c.2,0,.3.2.4.3,0,.1.1.3.1.4v2.6c.5-.8,1.1-1.4,1.5-1.9s.9-.9,1.4-1.2c.4-.3.9-.5,1.3-.6.4-.1.9-.2,1.3-.2s.4,0,.7,0c.2,0,.5,0,.7.1s.5.1.7.2c.2,0,.3.1.4.2,0,0,.1.2.2.3,0,0,0,.2.1.4,0,.2,0,.4,0,.7s0,.8,0,1.3Z"/>
  </g>
</svg>